<svg xmlns="http://www.w3.org/2000/svg" xmlns:xlink="http://www.w3.org/1999/xlink" width="1920" zoomAndPan="magnify" viewBox="0 0 1440 809.999993" height="1080" preserveAspectRatio="xMidYMid meet" version="1.0"><defs><clipPath id="f809bfeb96"><path d="M 10.195312 405 L 80.695312 405 L 80.695312 439 L 10.195312 439 Z M 10.195312 405 " clip-rule="nonzero"/></clipPath><clipPath id="83e1a19e66"><path d="M 49 424 L 63 424 L 63 441 L 49 441 Z M 49 424 " clip-rule="nonzero"/></clipPath><clipPath id="779985cff6"><path d="M 0 163.257812 L 9.828125 163.257812 L 9.828125 219 L 0 219 Z M 0 163.257812 " clip-rule="nonzero"/></clipPath><clipPath id="72a62c877f"><path d="M 0 646.453125 L 39.078125 646.453125 L 39.078125 681 L 0 681 Z M 0 646.453125 " clip-rule="nonzero"/></clipPath><clipPath id="6cc13a16fd"><path d="M 7 666 L 21 666 L 21 683.953125 L 7 683.953125 Z M 7 666 " clip-rule="nonzero"/></clipPath></defs><rect x="-144" width="1728" fill="#ffffff" y="-80.999999" height="971.999992" fill-opacity="1"/><rect x="-144" width="1728" fill="#ffffff" y="-80.999999" height="971.999992" fill-opacity="1"/><g clip-path="url(#f809bfeb96)"><path fill="#0cc0df" d="M 10.238281 428.5625 C 12.246094 427.511719 13.644531 426.777344 14.4375 426.355469 C 14.824219 426.148438 15.226562 426.140625 15.648438 426.332031 C 20.414062 428.507812 23.375 429.855469 24.53125 430.375 C 24.601562 430.40625 24.683594 430.402344 24.746094 430.363281 L 39 421.980469 C 39.03125 421.960938 39.039062 421.921875 39.023438 421.894531 C 39.015625 421.882812 39.007812 421.875 38.996094 421.867188 C 33.777344 419.421875 28.738281 416.769531 23.878906 413.90625 C 22.839844 413.292969 21.9375 412.703125 21.179688 412.132812 C 20.867188 411.898438 20.648438 411.652344 20.511719 411.386719 C 20.390625 411.140625 20.453125 410.835938 20.664062 410.644531 C 21.714844 409.683594 23.941406 409.269531 25.25 409.117188 C 25.441406 409.097656 25.636719 409.105469 25.824219 409.148438 C 33.550781 410.90625 42.730469 412.945312 51.410156 414.542969 C 51.523438 414.5625 51.640625 414.542969 51.742188 414.492188 C 52.832031 413.902344 54.054688 413.214844 55.398438 412.425781 C 56.597656 411.726562 59.285156 410.253906 63.46875 408.003906 C 64.695312 407.339844 65.996094 406.742188 67.371094 406.214844 C 71.527344 404.601562 75.519531 404.480469 79.589844 406.554688 C 80.523438 407.03125 81.4375 407.917969 80.710938 409.046875 C 80.355469 409.597656 79.867188 410.179688 79.25 410.796875 C 77.9375 412.105469 76.4375 413.210938 74.753906 414.121094 C 72.304688 415.445312 70.121094 416.773438 67.164062 418.445312 C 62.976562 420.8125 58.101562 423.644531 55.03125 425.402344 C 51.570312 427.382812 49.332031 428.652344 48.3125 429.203125 C 40.121094 433.640625 31.417969 436.667969 22.214844 438.28125 C 21.425781 438.417969 20.796875 438.480469 20.324219 438.46875 C 18.949219 438.4375 16.820312 437.578125 17.683594 435.769531 C 17.894531 435.324219 18.144531 434.949219 18.429688 434.644531 C 18.476562 434.59375 18.472656 434.519531 18.425781 434.476562 C 18.425781 434.476562 18.421875 434.472656 18.421875 434.472656 C 18.113281 434.207031 17.863281 434.003906 17.675781 433.867188 C 15.019531 431.929688 12.539062 430.191406 10.234375 428.648438 C 10.210938 428.632812 10.203125 428.601562 10.21875 428.578125 C 10.222656 428.574219 10.230469 428.566406 10.238281 428.5625 Z M 10.238281 428.5625 " fill-opacity="1" fill-rule="nonzero"/></g><g clip-path="url(#83e1a19e66)"><path fill="#0cc0df" d="M 49.761719 431.957031 L 62.441406 424.632812 C 62.515625 424.59375 62.605469 424.617188 62.648438 424.691406 C 62.664062 424.71875 62.667969 424.753906 62.664062 424.785156 C 61.980469 429.476562 61.414062 433.867188 60.96875 437.964844 C 60.921875 438.386719 60.714844 438.722656 60.347656 438.980469 C 59.152344 439.816406 57.925781 440.515625 56.664062 441.085938 C 56.546875 441.136719 56.40625 441.09375 56.339844 440.980469 C 55.707031 439.875 55.039062 438.972656 54.417969 437.898438 C 53.398438 436.144531 52.421875 434.535156 51.488281 433.078125 C 51.394531 432.929688 51.207031 432.746094 50.929688 432.519531 C 50.859375 432.460938 50.78125 432.421875 50.691406 432.402344 L 49.800781 432.203125 C 49.730469 432.183594 49.683594 432.113281 49.699219 432.039062 C 49.707031 432.003906 49.730469 431.972656 49.761719 431.957031 Z M 49.761719 431.957031 " fill-opacity="1" fill-rule="nonzero"/></g><g clip-path="url(#779985cff6)"><path fill="#ff3131" d="M -105.597656 201.816406 C -102.3125 200.097656 -100.019531 198.894531 -98.722656 198.207031 C -98.089844 197.867188 -97.429688 197.855469 -96.746094 198.167969 C -88.945312 201.730469 -84.097656 203.933594 -82.207031 204.78125 C -82.09375 204.832031 -81.960938 204.824219 -81.851562 204.761719 L -58.53125 191.042969 C -58.480469 191.015625 -58.464844 190.953125 -58.492188 190.902344 C -58.503906 190.886719 -58.519531 190.871094 -58.535156 190.863281 C -67.078125 186.859375 -75.324219 182.515625 -83.273438 177.832031 C -84.976562 176.828125 -86.449219 175.859375 -87.695312 174.929688 C -88.199219 174.546875 -88.5625 174.140625 -88.78125 173.707031 C -88.984375 173.304688 -88.882812 172.808594 -88.535156 172.492188 C -86.816406 170.921875 -83.171875 170.246094 -81.027344 169.996094 C -80.714844 169.960938 -80.398438 169.976562 -80.089844 170.046875 C -67.445312 172.921875 -52.421875 176.257812 -38.222656 178.875 C -38.035156 178.90625 -37.84375 178.875 -37.679688 178.789062 C -35.890625 177.824219 -33.894531 176.699219 -31.695312 175.410156 C -29.734375 174.265625 -25.332031 171.851562 -18.488281 168.171875 C -16.480469 167.085938 -14.347656 166.109375 -12.101562 165.242188 C -5.296875 162.601562 1.238281 162.410156 7.890625 165.800781 C 9.425781 166.582031 10.917969 168.03125 9.726562 169.878906 C 9.148438 170.78125 8.351562 171.734375 7.339844 172.742188 C 5.191406 174.882812 2.738281 176.695312 -0.015625 178.183594 C -4.023438 180.351562 -7.597656 182.523438 -12.4375 185.261719 C -19.292969 189.132812 -27.273438 193.765625 -32.296875 196.644531 C -37.957031 199.890625 -41.621094 201.960938 -43.285156 202.863281 C -56.695312 210.128906 -70.933594 215.078125 -86 217.71875 C -87.285156 217.945312 -88.316406 218.046875 -89.089844 218.027344 C -91.339844 217.980469 -94.828125 216.566406 -93.417969 213.613281 C -93.070312 212.882812 -92.660156 212.265625 -92.191406 211.765625 C -92.117188 211.6875 -92.121094 211.566406 -92.199219 211.492188 C -92.199219 211.492188 -92.203125 211.488281 -92.207031 211.488281 C -92.710938 211.050781 -93.117188 210.722656 -93.425781 210.496094 C -97.769531 207.328125 -101.828125 204.484375 -105.605469 201.957031 C -105.640625 201.933594 -105.652344 201.882812 -105.628906 201.84375 C -105.621094 201.832031 -105.609375 201.824219 -105.597656 201.816406 Z M -105.597656 201.816406 " fill-opacity="1" fill-rule="nonzero"/></g><g clip-path="url(#72a62c877f)"><path fill="#000000" d="M -33.625 670.757812 C -31.550781 669.675781 -30.109375 668.914062 -29.292969 668.480469 C -28.890625 668.269531 -28.476562 668.261719 -28.042969 668.457031 C -23.125 670.703125 -20.070312 672.09375 -18.878906 672.628906 C -18.808594 672.65625 -18.726562 672.652344 -18.65625 672.613281 L -3.957031 663.96875 C -3.925781 663.949219 -3.914062 663.910156 -3.933594 663.878906 C -3.941406 663.867188 -3.949219 663.859375 -3.960938 663.851562 C -9.34375 661.332031 -14.542969 658.59375 -19.554688 655.636719 C -20.625 655.007812 -21.554688 654.398438 -22.339844 653.808594 C -22.660156 653.570312 -22.886719 653.3125 -23.027344 653.039062 C -23.152344 652.785156 -23.089844 652.472656 -22.871094 652.273438 C -21.789062 651.285156 -19.488281 650.859375 -18.136719 650.699219 C -17.941406 650.679688 -17.742188 650.6875 -17.546875 650.734375 C -9.578125 652.546875 -0.105469 654.648438 8.84375 656.296875 C 8.960938 656.316406 9.082031 656.296875 9.1875 656.242188 C 10.3125 655.632812 11.570312 654.925781 12.957031 654.113281 C 14.195312 653.390625 16.96875 651.871094 21.28125 649.550781 C 22.546875 648.867188 23.890625 648.253906 25.308594 647.703125 C 29.597656 646.039062 33.714844 645.917969 37.910156 648.054688 C 38.875 648.546875 39.816406 649.460938 39.066406 650.625 C 38.699219 651.195312 38.199219 651.796875 37.558594 652.433594 C 36.207031 653.78125 34.660156 654.921875 32.925781 655.863281 C 30.398438 657.226562 28.144531 658.597656 25.09375 660.320312 C 20.773438 662.761719 15.746094 665.683594 12.578125 667.496094 C 9.011719 669.542969 6.703125 670.847656 5.652344 671.417969 C -2.800781 675.996094 -11.777344 679.117188 -21.273438 680.78125 C -22.082031 680.921875 -22.730469 680.988281 -23.21875 680.976562 C -24.636719 680.945312 -26.835938 680.054688 -25.945312 678.191406 C -25.726562 677.730469 -25.46875 677.34375 -25.171875 677.027344 C -25.128906 676.980469 -25.128906 676.902344 -25.179688 676.855469 C -25.179688 676.855469 -25.179688 676.855469 -25.183594 676.851562 C -25.5 676.578125 -25.757812 676.371094 -25.953125 676.226562 C -28.691406 674.230469 -31.25 672.4375 -33.628906 670.847656 C -33.652344 670.828125 -33.660156 670.796875 -33.644531 670.773438 C -33.640625 670.769531 -33.632812 670.761719 -33.625 670.757812 Z M -33.625 670.757812 " fill-opacity="1" fill-rule="nonzero"/></g><g clip-path="url(#6cc13a16fd)"><path fill="#000000" d="M 7.144531 674.257812 L 20.222656 666.707031 C 20.296875 666.664062 20.390625 666.6875 20.433594 666.761719 C 20.453125 666.792969 20.457031 666.828125 20.453125 666.859375 C 19.746094 671.699219 19.164062 676.230469 18.703125 680.457031 C 18.65625 680.890625 18.441406 681.238281 18.0625 681.503906 C 16.832031 682.363281 15.566406 683.085938 14.261719 683.671875 C 14.140625 683.726562 13.996094 683.679688 13.929688 683.566406 C 13.277344 682.425781 12.585938 681.492188 11.945312 680.386719 C 10.898438 678.578125 9.890625 676.917969 8.925781 675.414062 C 8.828125 675.261719 8.636719 675.070312 8.347656 674.839844 C 8.277344 674.78125 8.195312 674.738281 8.105469 674.71875 L 7.1875 674.511719 C 7.113281 674.492188 7.0625 674.417969 7.082031 674.34375 C 7.089844 674.308594 7.113281 674.277344 7.144531 674.257812 Z M 7.144531 674.257812 " fill-opacity="1" fill-rule="nonzero"/></g></svg>